<?xml version="1.0" standalone="no"?>
<!DOCTYPE svg PUBLIC "-//W3C//DTD SVG 20010904//EN"
 "http://www.w3.org/TR/2001/REC-SVG-20010904/DTD/svg10.dtd">
<svg version="1.0" xmlns="http://www.w3.org/2000/svg"
 width="512.000000pt" height="512.000000pt" viewBox="0 0 512.000000 512.000000"
 preserveAspectRatio="xMidYMid meet">

<g transform="translate(0.000000,512.000000) scale(0.100000,-0.100000)"
fill="#FE9E7D" stroke="none">
<path d="M2516 5011 c-60 -66 -81 -364 -37 -526 33 -124 66 -156 115 -113 86
75 93 470 11 628 -19 36 -62 41 -89 11z"/>
<path d="M452 4678 c-28 -36 -24 -58 24 -135 107 -171 288 -353 445 -445 71
-42 98 -47 122 -20 25 27 21 50 -19 116 -107 178 -270 343 -446 451 -74 46
-108 55 -126 33z"/>
<path d="M4566 4654 c-193 -116 -400 -327 -487 -496 -23 -45 -17 -85 16 -100
19 -9 33 -5 80 22 161 92 347 269 454 431 63 96 74 135 45 163 -23 23 -43 20
-108 -20z"/>
<path d="M1694 4031 c-113 -18 -271 -85 -385 -162 -133 -90 -251 -262 -296
-429 -28 -103 -25 -413 5 -540 56 -236 169 -493 310 -706 93 -142 141 -200
353 -429 309 -335 570 -566 787 -695 62 -36 70 -39 105 -29 20 5 102 57 182
114 391 280 709 584 962 922 228 304 382 606 439 863 26 115 24 351 -5 455
-76 282 -277 499 -550 596 -160 56 -371 64 -516 19 -220 -69 -397 -227 -494
-441 l-28 -63 -38 75 c-133 265 -396 437 -693 453 -48 3 -110 1 -138 -3z
m1774 -197 c108 -27 219 -90 297 -168 128 -129 186 -280 188 -486 1 -195 -45
-373 -158 -605 -153 -316 -374 -605 -749 -981 -195 -194 -489 -464 -508 -464
-3 0 -111 105 -240 233 -661 657 -990 1145 -1083 1606 -27 129 -18 340 19 446
74 214 236 366 451 420 193 49 431 -13 584 -152 108 -97 172 -201 231 -373 40
-120 58 -134 88 -73 10 21 24 61 31 88 7 28 32 92 57 144 38 79 60 108 132
181 116 115 233 176 387 199 73 12 196 5 273 -15z"/>
<path d="M300 2655 c-120 -19 -198 -50 -206 -81 -14 -56 41 -88 196 -113 128
-21 295 -5 415 40 51 19 55 23 55 53 0 45 -23 62 -112 85 -105 27 -244 33
-348 16z"/>
<path d="M4615 2664 c-16 -2 -72 -14 -122 -25 -73 -16 -97 -26 -113 -46 -43
-55 -19 -83 96 -114 157 -43 461 -21 526 38 25 23 24 79 -2 93 -65 35 -294 67
-385 54z"/>
<path d="M964 1044 c-90 -48 -208 -138 -304 -234 -110 -110 -230 -279 -230
-326 0 -35 16 -54 45 -54 24 0 111 51 207 120 161 116 383 388 376 460 -2 19
-11 38 -24 46 -18 13 -26 11 -70 -12z"/>
<path d="M4076 1057 c-10 -7 -18 -27 -18 -45 -2 -50 115 -215 237 -337 108
-108 298 -245 340 -245 31 0 59 41 51 72 -13 55 -116 190 -235 309 -119 119
-241 213 -316 245 -41 17 -37 17 -59 1z"/>
<path d="M2532 745 c-48 -34 -89 -260 -72 -404 11 -94 36 -197 56 -228 17 -28
54 -30 83 -5 63 53 88 371 43 542 -29 107 -57 132 -110 95z"/>
</g>
</svg>
