<?xml version="1.0" standalone="no"?>
<!DOCTYPE svg PUBLIC "-//W3C//DTD SVG 20010904//EN"
 "http://www.w3.org/TR/2001/REC-SVG-20010904/DTD/svg10.dtd">
<svg version="1.0" xmlns="http://www.w3.org/2000/svg"
 width="512.000000pt" height="512.000000pt" viewBox="0 0 512.000000 512.000000"
 preserveAspectRatio="xMidYMid meet">

<g transform="translate(0.000000,512.000000) scale(0.100000,-0.100000)"
fill="#FE9E7D" stroke="none">
<path d="M4609 4681 c-21 -17 -24 -28 -24 -84 0 -56 4 -69 25 -92 49 -52 89
-13 91 91 2 51 -1 60 -25 81 -33 28 -37 28 -67 4z"/>
<path d="M4895 4570 c-27 -10 -91 -82 -100 -111 -6 -18 -2 -28 20 -46 32 -28
56 -24 98 16 85 78 72 178 -18 141z"/>
<path d="M1200 4499 c-303 -39 -593 -174 -789 -368 -178 -177 -299 -411 -351
-676 -24 -125 -27 -275 -6 -308 8 -12 19 -58 25 -102 6 -45 24 -127 40 -183
l29 -103 -39 -58 c-22 -32 -46 -64 -54 -71 -13 -11 -15 -97 -15 -662 l0 -650
44 -56 c83 -108 -10 -96 792 -102 l704 -5 352 -352 c194 -193 369 -359 388
-370 31 -16 60 -18 240 -18 126 0 220 4 243 12 82 24 210 137 453 398 223 239
301 313 344 325 72 21 236 22 585 5 557 -27 759 -8 865 82 55 46 63 78 49 201
-10 89 -9 169 6 477 24 476 12 627 -62 783 l-25 53 26 92 c47 165 57 230 63
385 6 167 -3 252 -43 391 -104 357 -419 660 -827 796 -514 171 -1101 96 -1536
-197 -152 -103 -133 -96 -177 -61 -200 157 -538 292 -845 337 -114 17 -366 20
-479 5z m2511 -127 c246 -65 426 -201 562 -425 116 -193 180 -241 212 -163 13
32 13 39 -5 81 -40 93 -114 190 -252 331 l-141 144 36 0 c20 0 67 -7 106 -15
348 -73 633 -404 721 -836 29 -143 36 -301 17 -424 -14 -91 -56 -243 -74 -272
-5 -7 -59 -12 -157 -15 -182 -4 -179 -6 -152 114 31 140 46 258 47 367 1 88
-2 108 -19 130 -27 36 -72 36 -90 -1 -7 -16 -17 -103 -23 -219 -13 -263 -34
-344 -100 -383 -29 -17 -40 -17 -186 -5 -184 14 -774 8 -1318 -16 -1328 -56
-1976 -10 -2309 163 -93 49 -124 82 -179 193 -68 138 -91 230 -91 369 0 177
45 312 155 460 126 170 334 306 564 367 87 23 120 26 255 27 114 0 173 -4 222
-17 193 -48 339 -133 504 -294 108 -105 136 -149 234 -377 40 -92 81 -156 100
-156 25 0 52 42 71 110 102 372 483 705 879 770 41 6 82 13 90 15 41 10 252
-5 321 -23z m-1720 -62 c163 -39 347 -140 452 -247 l47 -49 -65 -109 c-36 -60
-67 -111 -69 -113 -2 -2 -28 32 -56 75 -114 170 -245 305 -397 410 -42 29 -78
55 -81 58 -9 9 88 -6 169 -25z m959 -1661 c261 -5 711 -9 999 -8 523 2 524 2
541 -19 16 -19 18 -72 25 -549 7 -552 5 -610 -35 -699 -19 -45 -66 -85 -120
-103 -67 -22 -208 -23 -595 -2 -362 20 -473 21 -1540 17 -740 -2 -1212 -7
-1325 -15 -256 -17 -494 -18 -558 -2 -73 18 -125 68 -146 141 -21 73 -23 201
-12 748 6 306 13 442 20 442 6 0 81 7 166 15 569 53 1238 62 2580 34z m2008
-23 c15 -15 17 -77 22 -639 3 -342 1 -635 -4 -650 -15 -51 -58 -61 -237 -58
l-87 1 -12 48 c-10 36 -12 194 -11 667 l2 620 22 19 c20 17 35 18 155 13 107
-4 137 -8 150 -21z m-2132 -1551 c11 -27 -23 -66 -248 -287 l-221 -217 -31 21
c-45 32 -356 351 -353 362 2 6 82 20 178 32 148 19 532 86 564 98 6 3 32 5 58
5 34 1 49 -3 53 -14z m454 -32 c0 -17 -136 -162 -307 -327 l-182 -176 -130 0
c-110 0 -131 2 -131 15 0 18 147 177 238 258 118 104 235 170 374 211 84 25
138 32 138 19z"/>
<path d="M4480 3631 c-14 -26 -13 -64 2 -79 17 -17 64 -15 82 4 21 21 20 57
-2 77 -25 23 -69 22 -82 -2z"/>
<path d="M1545 2361 c-141 -7 -160 -13 -191 -65 -17 -28 -19 -56 -19 -331 0
-407 -12 -388 258 -399 190 -8 228 -2 252 44 13 26 13 30 -1 44 -32 33 -55 37
-204 34 -182 -4 -183 -3 -188 105 -5 94 6 107 88 107 85 0 140 27 140 68 -1
39 -17 47 -110 52 -49 3 -95 11 -102 18 -17 17 -23 117 -8 152 7 17 21 35 31
41 10 5 80 9 156 7 163 -2 196 7 201 59 6 62 -60 76 -303 64z"/>
<path d="M2294 2359 c-125 -16 -210 -81 -240 -185 -13 -46 -15 -89 -12 -228 5
-198 21 -256 85 -318 52 -49 87 -58 248 -60 156 -2 199 8 232 58 15 24 18 49
18 159 0 112 -3 135 -20 164 -37 63 -66 76 -164 76 -100 0 -121 -10 -121 -60
0 -45 19 -57 96 -60 36 -2 72 -9 80 -16 18 -15 20 -157 1 -183 -10 -13 -33
-18 -103 -23 -117 -7 -171 13 -206 79 -22 41 -23 52 -21 222 2 159 4 183 21
205 28 38 74 50 194 50 l107 1 24 -31 c20 -25 30 -30 58 -27 25 2 37 10 47 30
11 24 10 34 -7 72 -12 27 -30 50 -48 59 -35 18 -187 27 -269 16z"/>
<path d="M623 2353 c-24 -9 -14 -102 21 -207 18 -56 55 -168 81 -251 66 -209
122 -315 165 -315 20 0 52 33 73 75 8 17 40 111 71 210 32 99 75 234 98 299
39 116 40 120 24 153 -46 97 -96 25 -195 -284 -29 -89 -58 -167 -66 -173 -16
-13 -56 79 -116 266 -59 184 -71 209 -110 223 -17 6 -32 11 -33 10 -1 0 -7 -3
-13 -6z"/>
<path d="M3545 2336 c-30 -45 -37 -142 -30 -435 3 -157 10 -292 16 -302 21
-39 84 -35 100 8 5 13 9 111 10 216 1 106 4 203 8 217 7 24 8 23 50 -30 24
-30 88 -121 142 -201 119 -177 169 -232 207 -227 52 6 59 70 55 509 -3 211 -4
227 -23 247 -27 28 -45 28 -75 -3 -25 -24 -25 -25 -25 -223 0 -157 -3 -202
-14 -218 -15 -19 -15 -18 -40 6 -13 14 -61 84 -106 155 -134 213 -208 305
-246 305 -7 0 -21 -11 -29 -24z"/>
<path d="M3037 2322 c-9 -10 -32 -51 -51 -92 -41 -91 -196 -559 -196 -594 0
-14 11 -37 24 -53 l24 -28 22 20 c26 24 57 83 94 181 29 77 37 84 109 84 88 0
126 -39 162 -165 17 -62 52 -105 84 -105 21 0 51 30 51 51 0 23 -155 506 -189
587 -52 126 -92 160 -134 114z m61 -277 c17 -37 15 -82 -4 -89 -50 -19 -72 14
-48 74 19 46 36 51 52 15z"/>
<path d="M4934 4294 c-17 -8 -37 -27 -43 -41 -10 -23 -9 -29 8 -46 39 -40 149
-38 185 2 57 63 -61 129 -150 85z"/>
</g>
</svg>
