<?xml version="1.0" standalone="no"?>
<!DOCTYPE svg PUBLIC "-//W3C//DTD SVG 20010904//EN"
 "http://www.w3.org/TR/2001/REC-SVG-20010904/DTD/svg10.dtd">
<svg version="1.0" xmlns="http://www.w3.org/2000/svg"
 width="512.000000pt" height="512.000000pt" viewBox="0 0 512.000000 512.000000"
 preserveAspectRatio="xMidYMid meet">

<g transform="translate(0.000000,512.000000) scale(0.100000,-0.100000)"
fill="#FE9E7D" stroke="none">
<path d="M1263 5035 c-50 -14 -203 -65 -339 -115 -136 -50 -270 -96 -298 -102
-98 -21 -126 -98 -68 -189 43 -67 154 -162 245 -210 77 -40 88 -43 178 -47 71
-3 112 0 155 13 231 66 385 262 385 490 1 96 -14 161 -41 175 -31 17 -119 11
-217 -15z m141 -142 c8 -55 -14 -149 -44 -198 -27 -44 -109 -119 -156 -143
-144 -73 -321 -69 -426 11 -46 36 -108 111 -108 132 0 7 19 20 43 28 l42 14
45 -46 c67 -69 108 -86 210 -86 91 0 133 15 198 70 40 34 81 118 89 183 5 49
7 52 47 66 22 8 44 15 48 15 3 1 9 -20 12 -46z m-251 -96 c-37 -65 -146 -95
-218 -61 -65 30 -54 40 93 87 127 41 137 43 140 25 2 -10 -5 -33 -15 -51z"/>
<path d="M3318 4911 c-107 -35 -196 -108 -243 -200 -26 -52 -31 -142 -11 -196
21 -54 88 -125 146 -155 l42 -22 -25 -26 c-85 -90 -101 -223 -35 -298 42 -47
83 -67 143 -67 123 -2 193 86 198 247 l1 37 40 -8 c139 -28 244 26 305 156 34
74 41 195 16 273 -33 99 -193 228 -329 264 -71 19 -180 17 -248 -5z m279 -136
c39 -17 79 -45 107 -75 69 -73 80 -102 81 -198 0 -83 0 -84 -36 -117 -46 -42
-96 -51 -169 -29 -147 43 -159 34 -169 -128 -9 -136 -18 -158 -68 -158 -44 0
-73 24 -73 60 0 25 21 62 95 164 63 87 46 117 -100 176 -122 49 -145 69 -145
124 0 89 67 165 176 200 79 25 223 17 301 -19z"/>
<path d="M4513 4795 c-229 -50 -366 -249 -333 -487 13 -96 65 -201 126 -257
151 -140 400 -155 579 -35 162 107 223 331 145 536 -44 117 -166 213 -307 243
-82 18 -129 18 -210 0z m277 -113 c103 -51 155 -166 148 -326 -5 -106 -23
-148 -90 -213 -64 -62 -145 -96 -244 -101 -221 -12 -347 134 -304 350 24 122
102 230 203 281 103 53 192 55 287 9z"/>
<path d="M4557 4535 c-131 -46 -160 -218 -51 -301 34 -26 45 -29 113 -29 64 0
81 4 110 24 61 44 88 142 57 214 -17 42 -66 83 -114 97 -48 13 -68 12 -115 -5z
m103 -125 c39 -39 16 -93 -40 -93 -57 0 -82 66 -38 97 30 21 54 20 78 -4z"/>
<path d="M2345 4286 c-135 -62 -237 -251 -188 -346 55 -105 228 -92 332 26
101 115 115 243 36 313 -45 39 -106 42 -180 7z m105 -131 c0 -67 -69 -148
-135 -161 -44 -8 -49 -4 -41 39 13 72 89 147 147 147 24 0 29 -4 29 -25z"/>
<path d="M1345 4096 c-123 -31 -175 -56 -236 -113 -95 -88 -139 -186 -139
-308 0 -121 40 -201 128 -252 40 -24 58 -28 122 -28 41 0 89 3 106 7 l31 7 5
-64 c11 -130 74 -206 178 -213 108 -8 192 57 206 158 7 57 -14 117 -65 185
l-39 52 32 15 c95 46 141 119 140 224 0 90 -35 166 -113 245 -98 97 -206 124
-356 85z m190 -75 c75 -34 148 -144 161 -244 9 -65 -10 -90 -104 -133 -130
-59 -138 -79 -66 -171 67 -86 104 -145 104 -165 0 -30 -37 -58 -75 -58 -51 0
-65 29 -75 147 -13 158 -34 181 -131 143 -69 -28 -147 -29 -191 -4 -132 76
-85 337 80 443 90 58 222 77 297 42z"/>
<path d="M320 3983 c-55 -20 -96 -116 -88 -207 11 -132 141 -269 255 -269 86
0 140 76 131 187 -14 163 -186 330 -298 289z m94 -142 c56 -37 93 -121 77
-176 -9 -35 -28 -35 -72 -2 -51 37 -83 130 -63 181 8 21 23 20 58 -3z"/>
<path d="M4039 3855 c-15 -8 -43 -37 -63 -64 -45 -61 -343 -321 -368 -321 -6
0 -53 7 -105 16 -71 12 -136 15 -261 12 -148 -4 -175 -8 -234 -30 -119 -45
-178 -107 -200 -210 -46 -219 187 -566 492 -731 222 -121 434 -123 664 -5 106
55 235 181 288 283 128 247 123 565 -13 838 -48 95 -121 202 -149 217 -23 12
-19 12 -51 -5z m-88 -422 c-51 -251 -126 -480 -234 -707 l-61 -129 -28 33
c-80 96 -134 252 -125 361 11 135 66 243 192 377 101 107 279 252 283 230 2
-9 -10 -83 -27 -165z m207 79 c56 -135 79 -254 63 -326 -18 -79 -57 -128 -133
-164 -35 -17 -78 -34 -97 -37 -30 -6 -33 -5 -29 11 3 11 22 75 43 144 38 131
95 387 95 431 0 22 7 39 15 39 2 0 21 -44 43 -98z m-651 -146 c3 -2 -10 -31
-29 -63 -19 -32 -45 -85 -58 -118 -32 -79 -36 -83 -49 -43 -9 29 -41 207 -41
232 0 9 168 1 177 -8z m-285 -86 c9 -47 17 -88 18 -93 0 -9 -77 29 -173 85
-39 23 -65 44 -60 49 10 10 162 49 183 46 9 -1 20 -30 32 -87z m-97 -179 c60
-33 140 -75 178 -93 63 -30 68 -34 62 -58 -19 -80 -117 -220 -154 -220 -34 0
-159 147 -210 247 -25 51 -71 188 -71 215 0 19 2 19 43 -5 23 -14 91 -52 152
-86z m1065 -167 c0 -3 -14 -33 -32 -66 -45 -85 -156 -185 -262 -237 -124 -61
-125 -60 -67 62 54 112 85 139 227 197 123 51 134 54 134 44z"/>
<path d="M4650 3598 c-72 -49 -98 -123 -75 -210 15 -58 37 -85 90 -109 76 -35
170 -13 216 52 20 29 24 46 24 111 0 62 -4 82 -21 105 -38 51 -81 73 -144 73
-43 0 -65 -6 -90 -22z m135 -122 c34 -51 -15 -113 -70 -88 -54 25 -35 112 25
112 20 0 35 -8 45 -24z"/>
<path d="M2145 3380 c-39 -12 -84 -55 -101 -96 -65 -156 101 -300 256 -221
113 56 122 231 15 297 -39 24 -124 34 -170 20z m107 -127 c22 -20 23 -56 2
-77 -33 -34 -104 -8 -104 37 0 49 64 75 102 40z"/>
<path d="M380 3114 c-117 -32 -212 -110 -266 -220 -31 -62 -37 -86 -41 -161
-12 -198 68 -342 230 -419 219 -102 485 -37 595 146 47 80 57 122 56 245 0 90
-5 121 -23 168 -43 109 -161 210 -285 243 -66 18 -196 17 -266 -2z m294 -118
c75 -37 122 -94 148 -179 26 -86 22 -188 -11 -263 -44 -101 -162 -186 -281
-202 -140 -20 -249 31 -308 142 -25 46 -27 61 -27 161 0 100 3 116 28 170 83
177 284 253 451 171z"/>
<path d="M445 2866 c-130 -56 -139 -260 -15 -328 52 -29 146 -21 193 15 69 52
86 172 37 252 -39 63 -143 92 -215 61z m103 -122 c43 -30 20 -104 -33 -104
-53 0 -76 74 -33 104 12 9 27 16 33 16 6 0 21 -7 33 -16z"/>
<path d="M1470 2896 c-113 -31 -185 -88 -232 -183 -28 -57 -32 -77 -32 -139 1
-95 46 -194 131 -284 l59 -63 -22 -44 c-13 -24 -26 -68 -29 -97 l-7 -54 -57
-5 c-31 -2 -224 3 -429 11 -510 21 -683 5 -764 -70 l-31 -29 6 -147 c14 -397
158 -755 410 -1018 110 -116 193 -179 317 -243 163 -84 344 -131 507 -131 l72
0 12 -42 c32 -121 121 -226 239 -282 l65 -31 225 3 c132 2 334 -4 490 -13 325
-20 681 -23 814 -6 315 40 485 143 531 321 l11 45 110 6 c614 37 1107 549
1184 1231 17 146 15 299 -3 334 -33 63 46 59 -1095 64 l-1045 5 -16 60 c-54
195 -164 311 -307 323 -59 4 -67 7 -75 31 -86 229 -322 361 -505 282 l-49 -21
-61 57 c-126 120 -283 168 -424 129z m184 -87 c70 -26 146 -94 205 -184 32
-47 54 -71 69 -73 14 -2 47 12 86 37 81 53 108 58 178 31 100 -37 178 -127
208 -240 20 -77 40 -90 137 -90 96 0 129 -13 168 -64 24 -31 54 -105 69 -168
6 -26 6 -26 -70 -33 -140 -14 -281 11 -430 75 -125 53 -232 118 -423 255
l-161 116 -30 -16 c-22 -11 -30 -23 -30 -43 0 -41 114 -143 261 -234 68 -42
147 -90 174 -107 l50 -31 -349 0 -349 0 7 43 c9 54 27 81 76 113 22 15 40 31
40 36 0 21 -27 57 -96 129 -82 85 -113 144 -121 230 -7 69 9 119 50 166 64 73
173 93 281 52z m3286 -981 c0 -46 -3 -101 -7 -122 l-6 -39 -131 6 c-242 12
-476 -20 -484 -66 -9 -44 153 -69 416 -65 132 2 182 0 182 -8 0 -7 -13 -65
-30 -130 -104 -414 -421 -740 -828 -852 l-97 -27 -337 3 c-186 1 -517 -4 -735
-13 -629 -24 -919 -19 -1193 21 -618 89 -988 366 -1149 861 -16 49 -31 102
-35 118 l-6 30 1332 0 c934 0 1408 4 1583 13 459 23 574 46 355 71 -305 34
-1436 54 -2536 44 -508 -4 -753 -3 -757 4 -4 6 -10 60 -13 122 l-7 111 2241 0
2242 0 0 -82z m-1330 -1507 c0 -19 -54 -64 -103 -85 -117 -51 -303 -80 -618
-97 -463 -24 -1152 28 -1278 96 -14 8 -24 15 -21 16 12 3 1797 76 1903 78 64
0 117 -3 117 -8z"/>
<path d="M4110 1657 c-28 -14 -38 -54 -20 -87 12 -23 68 -28 88 -8 21 21 15
75 -10 92 -27 19 -26 19 -58 3z"/>
<path d="M4633 2850 c-38 -23 -76 -92 -93 -172 -24 -107 23 -223 119 -296 35
-26 51 -32 74 -28 51 10 97 38 125 74 25 32 27 43 27 126 0 79 -4 99 -28 151
-32 69 -87 131 -134 151 -42 18 -52 18 -90 -6z m78 -130 c29 -16 59 -84 59
-135 0 -45 -22 -105 -39 -105 -27 0 -81 96 -81 144 0 25 28 106 37 106 2 0 13
-5 24 -10z"/>
<path d="M4820 729 c-47 -20 -53 -57 -14 -96 24 -24 30 -25 87 -19 101 10 133
48 82 96 -28 27 -113 37 -155 19z"/>
<path d="M4723 520 c-51 -21 -14 -125 58 -164 71 -39 120 7 85 80 -9 20 -36
47 -63 64 -52 33 -49 32 -80 20z"/>
<path d="M4513 432 c-19 -12 -33 -60 -33 -116 0 -42 5 -57 23 -74 46 -43 88
-19 102 60 15 79 -44 161 -92 130z"/>
</g>
</svg>
