<?xml version="1.0" standalone="no"?>
<!DOCTYPE svg PUBLIC "-//W3C//DTD SVG 20010904//EN"
 "http://www.w3.org/TR/2001/REC-SVG-20010904/DTD/svg10.dtd">
<svg version="1.0" xmlns="http://www.w3.org/2000/svg"
 width="512.000000pt" height="512.000000pt" viewBox="0 0 512.000000 512.000000"
 preserveAspectRatio="xMidYMid meet">

<g transform="translate(0.000000,512.000000) scale(0.100000,-0.100000)"
fill="#000000" stroke="none">
<path d="M1620 3974 c-248 -46 -393 -114 -542 -253 -216 -203 -318 -433 -318
-721 0 -213 53 -384 171 -555 32 -47 304 -325 819 -840 l770 -770 48 0 c39 0
55 6 87 32 22 17 367 359 766 760 602 604 735 743 782 814 66 100 97 168 134
288 24 78 27 101 27 256 0 199 -15 269 -90 424 -228 475 -776 683 -1263 482
-106 -44 -229 -130 -342 -239 l-99 -94 -108 103 c-228 218 -420 306 -692 314
-69 2 -136 2 -150 -1z m254 -248 c174 -34 267 -90 461 -278 228 -220 242 -220
455 -14 148 144 199 183 294 226 106 48 180 64 306 64 140 0 209 -16 340 -81
79 -39 109 -60 180 -132 47 -48 100 -112 119 -144 93 -159 126 -375 82 -547
-29 -116 -76 -211 -149 -300 -33 -41 -360 -374 -726 -740 l-666 -665 -646 645
c-355 355 -681 685 -725 734 -84 96 -134 180 -171 291 -20 60 -23 90 -23 215
0 125 3 155 23 214 44 132 92 210 184 303 176 179 418 255 662 209z"/>
</g>
</svg>
