<svg width="1640" height="982" viewBox="0 0 1640 982" fill="none" xmlns="http://www.w3.org/2000/svg">
<path d="M1005.72 558.942C831.8 607.776 836.915 772.59 836.915 772.59C836.915 772.59 946.039 705.444 1094.38 681.027C1288.76 648.979 1360.37 679.501 1360.37 679.501C1360.37 679.501 1305.81 673.396 1073.92 714.6C946.039 737.491 836.915 816.846 799.404 851.946C801.109 830.581 801.109 810.742 799.404 795.481C794.289 748.173 741.432 561.994 603.322 438.383C374.843 235.417 308.346 204.896 308.346 204.896C308.346 204.896 414.06 217.104 608.437 384.971C756.777 513.16 821.57 662.714 821.57 662.714C821.57 662.714 964.795 479.587 811.339 307.142C511.248 -24.0137 1.43451 0.403267 1.43451 0.403267C1.43451 0.403267 -36.0769 331.559 272.54 584.885C451.571 731.387 649.358 723.757 731.201 711.548C741.432 731.387 749.957 755.804 758.482 783.273C782.353 861.102 705.625 914.514 705.625 914.514C705.625 914.514 664.704 934.353 734.612 972.505C772.123 993.869 780.648 972.505 780.648 972.505C780.648 972.505 785.763 945.035 790.879 909.936C792.584 894.675 801.109 879.415 814.75 868.732C816.455 867.206 818.16 867.206 818.16 865.68C835.21 851.946 852.261 841.263 867.606 832.107C911.938 868.732 1029.59 946.561 1206.91 922.144C1512.12 880.941 1640 662.714 1640 662.714C1640 662.714 1339.91 464.326 1005.72 558.942Z" fill="#FE9E7D"/>
</svg>
