<svg width="3671" height="1292" viewBox="0 0 3671 1292" fill="none" xmlns="http://www.w3.org/2000/svg">
<path d="M3317.12 311.891C3220.08 339.14 3222.94 431.107 3222.94 431.107C3222.94 431.107 3283.82 393.639 3366.58 380.015C3475.03 362.132 3514.99 379.163 3514.99 379.163C3514.99 379.163 3484.55 375.757 3355.17 398.749C3283.82 411.522 3222.94 455.802 3202.01 475.388C3202.96 463.466 3202.96 452.396 3202.01 443.881C3199.15 417.483 3169.66 313.594 3092.61 244.619C2965.14 131.363 2928.03 114.332 2928.03 114.332C2928.03 114.332 2987.02 121.145 3095.46 214.815C3178.23 286.345 3214.38 369.796 3214.38 369.796C3214.38 369.796 3294.29 267.611 3208.67 171.386C3041.24 -13.3997 2756.8 0.225024 2756.8 0.225024C2756.8 0.225024 2735.87 185.011 2908.06 326.367C3007.94 408.116 3118.29 403.858 3163.96 397.046C3169.66 408.116 3174.42 421.74 3179.18 437.068C3192.5 480.497 3149.69 510.301 3149.69 510.301C3149.69 510.301 3126.86 521.371 3165.86 542.66C3186.79 554.582 3191.54 542.66 3191.54 542.66C3191.54 542.66 3194.4 527.332 3197.25 507.747C3198.2 499.231 3202.96 490.716 3210.57 484.755C3211.52 483.903 3212.47 483.903 3212.47 483.052C3221.99 475.388 3231.5 469.427 3240.06 464.318C3264.79 484.755 3330.43 528.184 3429.37 514.559C3599.65 491.567 3671 369.796 3671 369.796C3671 369.796 3503.57 259.095 3317.12 311.891Z" fill="#FE9E7D"/>
<path d="M1201.01 1207.01C1164.35 1207.01 1130.35 1198.68 1099.01 1182.01C1068.35 1165.35 1041.01 1142.68 1017.01 1114.01C993.012 1086.01 973.012 1054.35 957.012 1019.01C943.678 989.014 932.678 958.68 924.012 928.014C916.012 897.347 910.012 868.68 906.012 842.014C902.012 815.347 900.012 793.347 900.012 776.014C900.012 754.68 902.345 742.68 907.012 740.014C919.678 741.347 940.678 736.014 970.012 724.014C1000.01 712.014 1035.35 694.347 1076.01 671.014C1117.35 647.68 1161.68 619.68 1209.01 587.014C1257.01 553.68 1305.01 516.347 1353.01 475.014C1401.68 433.68 1448.35 389.014 1493.01 341.014C1537.68 293.014 1577.01 242.68 1611.01 190.014C1619.01 177.347 1626.68 171.014 1634.01 171.014C1640.01 171.014 1643.01 174.68 1643.01 182.014C1643.01 188.014 1640.68 194.68 1636.01 202.014C1604.01 255.347 1566.01 307.68 1522.01 359.014C1478.01 409.68 1431.01 457.347 1381.01 502.014C1331.01 546.68 1280.68 587.014 1230.01 623.014C1180.01 659.014 1132.01 689.014 1086.01 713.014C1040.68 737.014 1000.68 753.347 966.012 762.014C964.012 760.68 963.012 764.014 963.012 772.014C963.012 783.347 965.345 801.68 970.012 827.014C974.678 851.68 981.678 880.014 991.012 912.014C1001.01 943.347 1013.01 975.347 1027.01 1008.01C1048.35 1058.01 1073.68 1096.35 1103.01 1123.01C1133.01 1150.35 1167.35 1164.01 1206.01 1164.01C1232.01 1164.01 1258.68 1160.01 1286.01 1152.01C1313.35 1144.68 1338.35 1133.01 1361.01 1117.01C1383.68 1101.68 1401.35 1082.01 1414.01 1058.01C1418.01 1048.68 1422.68 1044.01 1428.01 1044.01C1430.68 1044.01 1432.01 1046.01 1432.01 1050.01C1432.01 1054.68 1430.35 1060.01 1427.01 1066.01C1415.01 1090.68 1396.68 1113.68 1372.01 1135.01C1347.35 1156.35 1319.68 1173.68 1289.01 1187.01C1259.01 1200.35 1229.68 1207.01 1201.01 1207.01ZM355.012 1194.01C309.678 1194.01 265.678 1187.68 223.012 1175.01C181.012 1163.01 143.012 1145.01 109.012 1121.01C75.6784 1097.01 49.0117 1067.68 29.0117 1033.01C9.67839 998.347 0.0117185 959.014 0.0117185 915.014C0.0117185 903.014 1.01172 890.68 3.01172 878.014C5.01172 864.68 7.67839 851.014 11.0117 837.014C17.6784 813.014 28.3451 792.347 43.0117 775.014C58.3451 757.014 74.0117 743.014 90.0117 733.014C106.012 722.347 118.012 716.68 126.012 716.014H129.012C135.678 716.014 139.012 718.014 139.012 722.014C139.012 725.347 137.345 728.014 134.012 730.014C128.012 732.68 117.678 740.347 103.012 753.014C89.0117 765.014 75.0117 782.014 61.0117 804.014C47.0117 825.347 38.0117 851.014 34.0117 881.014C32.0117 893.68 31.0117 905.68 31.0117 917.014C31.0117 957.014 39.6784 991.347 57.0117 1020.01C74.3451 1048.01 97.0117 1071.01 125.012 1089.01C153.012 1107.01 183.678 1120.01 217.012 1128.01C250.345 1136.68 283.012 1141.01 315.012 1141.01C327.678 1141.01 340.012 1140.35 352.012 1139.01C364.012 1138.35 375.345 1136.68 386.012 1134.01C458.012 1118.01 520.345 1092.35 573.012 1057.01C626.345 1021.68 672.345 981.014 711.012 935.014C749.678 889.014 782.345 841.68 809.012 793.014C836.345 744.347 859.345 698.68 878.012 656.014C882.012 646.014 888.678 630.347 898.012 609.014C908.012 587.68 919.012 563.347 931.012 536.014C943.678 508.68 956.345 481.014 969.012 453.014C982.345 425.014 994.345 399.347 1005.01 376.014C1015.68 352.68 1024.35 334.68 1031.01 322.014C986.345 327.347 938.012 332.347 886.012 337.014C834.678 341.014 785.678 349.68 739.012 363.014C687.012 377.68 644.345 399.014 611.012 427.014C578.345 455.014 554.012 485.68 538.012 519.014C522.678 552.347 515.012 584.014 515.012 614.014C515.012 646.68 523.345 674.014 540.012 696.014C556.678 718.014 579.678 729.014 609.012 729.014C623.678 729.014 639.345 726.014 656.012 720.014C675.345 713.347 691.345 701.68 704.012 685.014C716.678 667.68 726.012 648.347 732.012 627.014C738.678 605.014 742.012 584.014 742.012 564.014C742.012 553.347 741.012 543.014 739.012 533.014V531.014C739.012 528.347 740.345 527.014 743.012 527.014C748.345 527.014 753.012 531.014 757.012 539.014C760.345 545.68 762.345 553.014 763.012 561.014C764.345 568.347 765.012 575.68 765.012 583.014C765.012 604.347 760.345 625.68 751.012 647.014C741.678 667.68 729.345 686.347 714.012 703.014C698.678 719.68 681.345 731.68 662.012 739.014C651.345 743.014 641.012 746.014 631.012 748.014C621.012 749.347 611.345 750.014 602.012 750.014C573.345 750.014 547.678 742.68 525.012 728.014C503.012 712.68 485.678 692.68 473.012 668.014C461.012 643.347 455.012 616.68 455.012 588.014C455.012 555.347 464.012 522.347 482.012 489.014C500.012 455.014 529.012 424.347 569.012 397.014C609.012 369.014 661.678 347.68 727.012 333.014C781.678 321.014 837.345 313.347 894.012 310.014C950.678 306.014 1000.68 302.014 1044.01 298.014C1046.68 294.014 1052.01 286.347 1060.01 275.014C1068.68 263.68 1078.35 252.347 1089.01 241.014C1100.35 229.014 1111.35 221.347 1122.01 218.014C1129.35 216.014 1135.68 215.014 1141.01 215.014C1153.01 215.014 1162.35 218.347 1169.01 225.014C1176.35 231.68 1180.01 239.68 1180.01 249.014C1180.01 262.347 1170.68 276.68 1152.01 292.014C1134.01 306.68 1103.35 316.347 1060.01 321.014C1038.68 360.347 1019.01 404.014 1001.01 452.014C983.012 499.347 965.012 549.014 947.012 601.014C929.678 652.347 910.345 704.014 889.012 756.014C868.345 807.347 844.678 857.014 818.012 905.014C791.345 952.347 759.678 995.68 723.012 1035.01C687.012 1074.35 644.345 1107.35 595.012 1134.01C546.345 1160.68 489.678 1179.01 425.012 1189.01C413.678 1190.35 402.012 1191.35 390.012 1192.01C378.012 1193.35 366.345 1194.01 355.012 1194.01ZM1079.01 296.014C1099.68 292.68 1114.35 288.68 1123.01 284.014C1132.35 278.68 1139.01 273.347 1143.01 268.014C1147.68 262.68 1150.01 258.014 1150.01 254.014C1150.01 247.347 1146.68 244.014 1140.01 244.014C1134.01 244.014 1126.68 247.347 1118.01 254.014C1111.35 258.68 1104.35 265.347 1097.01 274.014C1089.68 282.68 1083.68 290.014 1079.01 296.014ZM1429.4 1025.01C1422.07 1025.68 1413.74 1024.01 1404.4 1020.01C1395.07 1016.01 1386.74 1008.68 1379.4 998.014C1372.74 987.347 1369.4 972.347 1369.4 953.014C1369.4 937.014 1372.4 917.68 1378.4 895.014C1370.4 907.68 1360.07 923.347 1347.4 942.014C1334.74 960.014 1321.07 976.014 1306.4 990.014C1293.74 1002.01 1281.74 1010.68 1270.4 1016.01C1259.07 1021.35 1248.74 1024.01 1239.4 1024.01C1222.07 1024.01 1208.07 1016.35 1197.4 1001.01C1186.74 985.014 1181.4 964.347 1181.4 939.014C1181.4 912.347 1188.07 882.014 1201.4 848.014C1214.74 814.014 1236.4 778.68 1266.4 742.014C1285.74 718.68 1309.07 700.014 1336.4 686.014C1364.4 671.347 1391.74 664.014 1418.4 664.014C1433.74 664.014 1448.4 666.68 1462.4 672.014C1476.4 676.68 1488.74 684.68 1499.4 696.014C1504.07 700.68 1506.4 706.014 1506.4 712.014C1506.4 716.014 1504.74 719.347 1501.4 722.014C1498.07 724.68 1493.74 725.347 1488.4 724.014C1481.07 700.68 1465.4 689.014 1441.4 689.014C1430.07 689.014 1417.07 692.68 1402.4 700.014C1379.74 712.014 1356.07 731.68 1331.4 759.014C1307.4 786.347 1286.4 814.68 1268.4 844.014C1265.74 848.014 1261.4 855.68 1255.4 867.014C1250.07 878.347 1244.74 891.014 1239.4 905.014C1234.07 919.014 1230.4 932.68 1228.4 946.014C1227.74 950.014 1227.4 953.014 1227.4 955.014C1227.4 956.347 1227.4 958.68 1227.4 962.014C1227.4 984.014 1235.74 995.014 1252.4 995.014C1272.4 995.014 1295.07 980.347 1320.4 951.014C1337.74 929.68 1353.4 907.347 1367.4 884.014C1381.4 860.68 1395.74 835.68 1410.4 809.014C1420.4 791.014 1429.74 776.014 1438.4 764.014C1447.07 752.014 1459.4 746.014 1475.4 746.014C1482.74 746.014 1490.07 747.014 1497.4 749.014C1504.74 751.014 1512.4 751.347 1520.4 750.014C1515.07 755.347 1507.74 765.347 1498.4 780.014C1489.74 794.68 1480.4 811.347 1470.4 830.014C1460.4 848.68 1451.4 867.68 1443.4 887.014C1435.4 906.347 1429.74 923.014 1426.4 937.014C1425.74 941.014 1424.74 946.68 1423.4 954.014C1422.74 961.347 1422.4 966.68 1422.4 970.014C1422.4 988.68 1427.74 998.014 1438.4 998.014C1449.07 998.014 1460.4 991.68 1472.4 979.014C1485.07 966.347 1497.4 950.68 1509.4 932.014C1521.4 913.347 1532.4 894.68 1542.4 876.014C1552.4 856.68 1560.4 841.014 1566.4 829.014C1569.07 822.347 1573.07 819.014 1578.4 819.014C1581.74 819.014 1583.4 821.347 1583.4 826.014C1583.4 828.014 1582.4 831.68 1580.4 837.014C1572.4 853.68 1562.74 872.68 1551.4 894.014C1540.07 914.68 1527.74 935.014 1514.4 955.014C1501.07 974.347 1487.07 990.68 1472.4 1004.01C1458.4 1016.68 1444.07 1023.68 1429.4 1025.01ZM2031.14 1114.01C1965.81 1114.01 1905.81 1104.35 1851.14 1085.01C1797.14 1065.68 1753.48 1037.35 1720.14 1000.01C1686.81 962.014 1668.48 915.347 1665.14 860.014C1663.81 837.347 1667.48 812.347 1676.14 785.014C1684.81 757.68 1696.81 730.68 1712.14 704.014C1728.14 676.68 1746.81 652.347 1768.14 631.014C1790.14 609.014 1813.48 592.347 1838.14 581.014C1840.14 579.68 1843.14 578.68 1847.14 578.014C1851.81 577.347 1855.14 577.014 1857.14 577.014C1861.14 577.014 1863.14 578.014 1863.14 580.014C1863.14 583.347 1858.14 588.68 1848.14 596.014C1820.14 618.014 1797.14 643.347 1779.14 672.014C1760.48 700.68 1746.48 731.347 1737.14 764.014C1727.81 796.68 1723.14 829.68 1723.14 863.014C1723.14 902.347 1731.48 936.347 1748.14 965.014C1765.48 993.014 1788.48 1016.01 1817.14 1034.01C1845.81 1052.68 1878.48 1066.35 1915.14 1075.01C1951.81 1083.68 1990.14 1088.01 2030.14 1088.01C2074.81 1088.01 2118.81 1083.01 2162.14 1073.01C2206.14 1063.01 2246.14 1048.68 2282.14 1030.01C2337.48 1000.68 2381.14 964.347 2413.14 921.014C2445.81 877.68 2462.14 834.68 2462.14 792.014C2462.14 769.347 2457.14 747.68 2447.14 727.014C2437.81 706.347 2422.48 687.68 2401.14 671.014C2385.14 658.347 2365.48 646.347 2342.14 635.014C2319.48 623.68 2295.14 612.68 2269.14 602.014C2243.81 591.347 2218.81 580.68 2194.14 570.014C2169.48 558.68 2147.81 546.68 2129.14 534.014C2102.48 516.014 2082.81 496.68 2070.14 476.014C2058.14 455.347 2052.14 434.68 2052.14 414.014C2052.14 389.347 2059.14 365.347 2073.14 342.014C2087.81 318.68 2107.48 297.68 2132.14 279.014C2157.48 259.68 2185.81 244.68 2217.14 234.014C2244.48 224.68 2274.14 217.347 2306.14 212.014C2338.81 206.68 2370.81 204.014 2402.14 204.014C2428.14 204.014 2452.81 206.014 2476.14 210.014C2500.14 213.347 2521.14 219.68 2539.14 229.014C2561.81 239.68 2579.14 254.014 2591.14 272.014C2603.14 289.347 2609.14 307.68 2609.14 327.014C2609.14 353.68 2597.14 377.014 2573.14 397.014C2564.48 403.68 2554.81 410.014 2544.14 416.014C2533.48 421.347 2520.81 426.014 2506.14 430.014C2503.48 430.68 2500.48 431.014 2497.14 431.014C2489.14 431.014 2485.14 428.68 2485.14 424.014C2485.14 421.347 2487.14 418.68 2491.14 416.014C2495.81 412.68 2502.48 410.68 2511.14 410.014C2531.14 407.347 2546.14 399.68 2556.14 387.014C2566.81 374.347 2572.14 359.68 2572.14 343.014C2572.14 325.68 2566.14 308.68 2554.14 292.014C2542.81 274.68 2525.14 260.347 2501.14 249.014C2477.14 237.014 2446.48 231.014 2409.14 231.014C2387.81 231.014 2364.14 233.347 2338.14 238.014C2312.81 242.68 2285.14 250.347 2255.14 261.014C2218.48 273.68 2187.81 292.347 2163.14 317.014C2139.14 341.68 2127.14 368.014 2127.14 396.014C2127.14 413.347 2132.81 431.014 2144.14 449.014C2156.14 466.347 2175.14 483.014 2201.14 499.014C2223.14 512.347 2248.14 525.68 2276.14 539.014C2304.14 551.68 2332.48 564.68 2361.14 578.014C2389.81 590.68 2415.81 604.347 2439.14 619.014C2475.81 641.68 2502.14 666.014 2518.14 692.014C2534.14 718.014 2542.14 744.68 2542.14 772.014C2542.14 804.014 2532.48 836.347 2513.14 869.014C2494.48 901.014 2469.81 931.347 2439.14 960.014C2408.48 988.014 2374.81 1013.01 2338.14 1035.01C2295.48 1060.35 2247.14 1079.68 2193.14 1093.01C2139.81 1107.01 2085.81 1114.01 2031.14 1114.01ZM2534.39 1030.01C2562.39 972.68 2591.39 912.68 2621.39 850.014C2652.06 786.68 2683.39 723.014 2715.39 659.014C2747.39 595.014 2779.06 534.014 2810.39 476.014C2821.73 456.014 2832.06 440.347 2841.39 429.014C2851.39 417.68 2864.39 412.014 2880.39 412.014C2886.39 412.014 2893.39 413.014 2901.39 415.014C2909.39 417.014 2917.06 417.347 2924.39 416.014C2915.73 425.347 2903.73 441.68 2888.39 465.014C2873.73 488.347 2857.06 516.347 2838.39 549.014C2820.39 581.68 2801.06 617.014 2780.39 655.014C2760.39 692.347 2740.39 730.347 2720.39 769.014C2701.06 807.014 2683.06 842.68 2666.39 876.014C2679.73 858.68 2693.39 842.347 2707.39 827.014C2721.39 811.68 2735.06 798.347 2748.39 787.014C2763.06 773.68 2781.39 759.68 2803.39 745.014C2826.06 730.347 2848.39 717.68 2870.39 707.014C2893.06 696.347 2911.06 691.014 2924.39 691.014C2929.06 691.014 2932.39 691.347 2934.39 692.014C2934.39 692.014 2930.73 698.68 2923.39 712.014C2916.06 725.347 2906.73 742.347 2895.39 763.014C2884.73 783.68 2873.39 806.014 2861.39 830.014C2850.06 854.014 2840.06 877.014 2831.39 899.014C2822.73 920.347 2817.06 938.014 2814.39 952.014C2812.39 962.68 2811.39 971.68 2811.39 979.014C2811.39 989.68 2813.39 997.014 2817.39 1001.01C2821.39 1004.35 2825.73 1006.01 2830.39 1006.01C2841.73 1006.01 2854.06 999.014 2867.39 985.014C2880.73 971.014 2893.73 954.014 2906.39 934.014C2919.06 913.347 2930.39 893.347 2940.39 874.014C2951.06 854.68 2959.06 839.68 2964.39 829.014C2968.39 821.68 2972.39 818.014 2976.39 818.014C2980.39 818.014 2982.39 820.68 2982.39 826.014C2982.39 828.68 2981.39 832.68 2979.39 838.014C2970.73 855.347 2960.73 875.014 2949.39 897.014C2938.73 918.347 2926.39 939.014 2912.39 959.014C2899.06 978.347 2884.06 994.347 2867.39 1007.01C2851.39 1019.68 2834.06 1026.01 2815.39 1026.01C2802.06 1026.01 2788.39 1021.35 2774.39 1012.01C2760.39 1002.68 2753.39 985.68 2753.39 961.014C2753.39 953.68 2754.06 946.014 2755.39 938.014C2756.73 929.347 2759.06 919.68 2762.39 909.014C2766.39 895.68 2773.06 881.014 2782.39 865.014C2791.73 848.347 2803.73 827.68 2818.39 803.014C2825.06 791.68 2828.39 782.68 2828.39 776.014C2828.39 768.014 2824.39 764.014 2816.39 764.014C2809.73 764.014 2800.73 767.347 2789.39 774.014C2778.06 780.68 2763.73 792.347 2746.39 809.014C2729.73 825.014 2709.06 848.347 2684.39 879.014C2659.73 909.68 2633.39 952.68 2605.39 1008.01C2600.73 1016.68 2595.39 1021.35 2589.39 1022.01C2584.06 1022.01 2576.73 1022.35 2567.39 1023.01C2561.39 1023.68 2555.39 1024.01 2549.39 1024.01C2543.39 1024.68 2538.39 1026.68 2534.39 1030.01ZM3035.38 1026.01C3010.71 1026.01 2988.38 1018.01 2968.38 1002.01C2949.05 986.014 2939.38 961.68 2939.38 929.014C2939.38 899.014 2946.71 867.014 2961.38 833.014C2976.05 798.347 2994.71 768.014 3017.38 742.014C3036.71 719.347 3058.38 700.68 3082.38 686.014C3106.38 671.347 3129.05 664.014 3150.38 664.014C3165.05 664.014 3177.71 668.014 3188.38 676.014C3199.71 684.68 3205.38 697.014 3205.38 713.014C3205.38 729.68 3199.05 748.014 3186.38 768.014C3173.71 788.014 3155.71 806.68 3132.38 824.014C3122.38 831.347 3109.71 838.347 3094.38 845.014C3079.05 851.68 3063.71 857.347 3048.38 862.014C3033.05 866.014 3020.38 868.014 3010.38 868.014C3007.05 876.014 3003.71 886.68 3000.38 900.014C2997.71 913.347 2996.38 927.014 2996.38 941.014C2996.38 957.68 2999.71 972.68 3006.38 986.014C3013.05 999.347 3025.38 1006.01 3043.38 1006.01C3065.38 1006.01 3085.38 999.68 3103.38 987.014C3121.38 974.347 3137.38 958.68 3151.38 940.014C3165.38 920.68 3177.05 901.347 3186.38 882.014C3196.38 862.68 3204.38 846.347 3210.38 833.014C3214.38 823.68 3219.71 819.014 3226.38 819.014C3229.71 819.014 3231.38 820.68 3231.38 824.014C3231.38 826.68 3230.38 830.014 3228.38 834.014C3219.05 854.014 3209.05 875.347 3198.38 898.014C3187.71 920.014 3175.05 941.014 3160.38 961.014C3145.71 980.347 3128.05 996.014 3107.38 1008.01C3087.38 1020.01 3063.38 1026.01 3035.38 1026.01ZM3017.38 850.014C3026.71 850.014 3042.38 846.68 3064.38 840.014C3086.38 832.68 3106.38 821.347 3124.38 806.014C3141.71 790.68 3155.05 774.014 3164.38 756.014C3173.71 737.347 3178.38 721.68 3178.38 709.014C3178.38 694.347 3173.05 687.014 3162.38 687.014C3154.38 687.014 3143.38 692.347 3129.38 703.014C3115.38 713.68 3098.05 731.68 3077.38 757.014C3064.71 773.014 3052.71 790.347 3041.38 809.014C3030.05 827.68 3022.05 841.347 3017.38 850.014ZM3428.43 1025.01C3421.09 1025.68 3412.76 1024.01 3403.43 1020.01C3394.09 1016.01 3385.76 1008.68 3378.43 998.014C3371.76 987.347 3368.43 972.347 3368.43 953.014C3368.43 937.014 3371.43 917.68 3377.43 895.014C3369.43 907.68 3359.09 923.347 3346.43 942.014C3333.76 960.014 3320.09 976.014 3305.43 990.014C3292.76 1002.01 3280.76 1010.68 3269.43 1016.01C3258.09 1021.35 3247.76 1024.01 3238.43 1024.01C3221.09 1024.01 3207.09 1016.35 3196.43 1001.01C3185.76 985.014 3180.43 964.347 3180.43 939.014C3180.43 912.347 3187.09 882.014 3200.43 848.014C3213.76 814.014 3235.43 778.68 3265.43 742.014C3284.76 718.68 3308.09 700.014 3335.43 686.014C3363.43 671.347 3390.76 664.014 3417.43 664.014C3432.76 664.014 3447.43 666.68 3461.43 672.014C3475.43 676.68 3487.76 684.68 3498.43 696.014C3503.09 700.68 3505.43 706.014 3505.43 712.014C3505.43 716.014 3503.76 719.347 3500.43 722.014C3497.09 724.68 3492.76 725.347 3487.43 724.014C3480.09 700.68 3464.43 689.014 3440.43 689.014C3429.09 689.014 3416.09 692.68 3401.43 700.014C3378.76 712.014 3355.09 731.68 3330.43 759.014C3306.43 786.347 3285.43 814.68 3267.43 844.014C3264.76 848.014 3260.43 855.68 3254.43 867.014C3249.09 878.347 3243.76 891.014 3238.43 905.014C3233.09 919.014 3229.43 932.68 3227.43 946.014C3226.76 950.014 3226.43 953.014 3226.43 955.014C3226.43 956.347 3226.43 958.68 3226.43 962.014C3226.43 984.014 3234.76 995.014 3251.43 995.014C3271.43 995.014 3294.09 980.347 3319.43 951.014C3336.76 929.68 3352.43 907.347 3366.43 884.014C3380.43 860.68 3394.76 835.68 3409.43 809.014C3419.43 791.014 3428.76 776.014 3437.43 764.014C3446.09 752.014 3458.43 746.014 3474.43 746.014C3481.76 746.014 3489.09 747.014 3496.43 749.014C3503.76 751.014 3511.43 751.347 3519.43 750.014C3514.09 755.347 3506.76 765.347 3497.43 780.014C3488.76 794.68 3479.43 811.347 3469.43 830.014C3459.43 848.68 3450.43 867.68 3442.43 887.014C3434.43 906.347 3428.76 923.014 3425.43 937.014C3424.76 941.014 3423.76 946.68 3422.43 954.014C3421.76 961.347 3421.43 966.68 3421.43 970.014C3421.43 988.68 3426.76 998.014 3437.43 998.014C3448.09 998.014 3459.43 991.68 3471.43 979.014C3484.09 966.347 3496.43 950.68 3508.43 932.014C3520.43 913.347 3531.43 894.68 3541.43 876.014C3551.43 856.68 3559.43 841.014 3565.43 829.014C3568.09 822.347 3572.09 819.014 3577.43 819.014C3580.76 819.014 3582.43 821.347 3582.43 826.014C3582.43 828.014 3581.43 831.68 3579.43 837.014C3571.43 853.68 3561.76 872.68 3550.43 894.014C3539.09 914.68 3526.76 935.014 3513.43 955.014C3500.09 974.347 3486.09 990.68 3471.43 1004.01C3457.43 1016.68 3443.09 1023.68 3428.43 1025.01Z" fill="black"/>
<path d="M1809.54 233.367C1741.81 260.327 1841.46 379.347 1706.01 433.267C1655.21 453.487 1630.97 445.504 1630.97 445.504L1623.66 430.782C1623.66 430.782 1651.55 446.125 1702.35 425.906C1736.22 412.426 1737.18 332.696 1737.18 332.696C1737.18 332.696 1729.71 406.03 1694.94 419.874C1631.5 332.853 1731.24 231.005 1809.54 233.367Z" fill="#FE9E7D"/>
</svg>
