<svg width="2615" height="918" viewBox="0 0 2615 918" fill="none" xmlns="http://www.w3.org/2000/svg">
<path d="M2299.02 278.333C2212.38 302.65 2214.93 384.721 2214.93 384.721C2214.93 384.721 2269.29 351.285 2343.19 339.126C2440.02 323.168 2475.7 338.367 2475.7 338.367C2475.7 338.367 2448.52 335.326 2333 355.845C2269.29 367.243 2214.93 406.759 2196.24 424.238C2197.09 413.599 2197.09 403.72 2196.24 396.12C2193.69 372.563 2167.36 279.852 2098.56 218.299C1984.74 117.229 1951.61 102.031 1951.61 102.031C1951.61 102.031 2004.27 108.11 2101.11 191.701C2175.01 255.535 2207.28 330.007 2207.28 330.007C2207.28 330.007 2278.64 238.817 2202.19 152.945C2052.69 -11.9579 1798.71 0.200812 1798.71 0.200812C1798.71 0.200812 1780.03 165.104 1933.77 291.251C2022.96 364.204 2121.49 360.404 2162.26 354.325C2167.36 364.204 2171.61 376.363 2175.85 390.041C2187.74 428.797 2149.53 455.394 2149.53 455.394C2149.53 455.394 2129.14 465.273 2163.96 484.272C2182.65 494.91 2186.9 484.272 2186.9 484.272C2186.9 484.272 2189.44 470.593 2191.99 453.115C2192.84 445.515 2197.09 437.916 2203.89 432.597C2204.73 431.837 2205.58 431.837 2205.58 431.077C2214.08 424.238 2222.57 418.918 2230.22 414.359C2252.3 432.597 2310.91 471.353 2399.25 459.194C2551.29 438.676 2615 330.007 2615 330.007C2615 330.007 2465.5 231.217 2299.02 278.333Z" fill="#FE9E7D"/>
<path d="M830.602 917.584C805.249 917.584 781.734 911.822 760.06 900.292C738.856 888.762 719.948 873.088 703.349 853.258C686.752 833.89 672.921 811.985 661.855 787.548C652.633 766.797 645.026 745.818 639.032 724.604C633.5 703.391 629.35 683.567 626.584 665.12C623.817 646.672 622.434 631.455 622.434 619.469C622.434 604.715 624.048 596.415 627.275 594.568C636.035 595.488 650.559 591.801 670.846 583.501C691.592 575.201 716.033 562.979 744.153 546.842C772.744 530.705 803.402 511.338 836.135 488.74C869.332 465.687 902.528 439.859 935.725 411.272C969.384 382.682 1001.66 351.787 1032.55 318.586C1063.44 285.385 1090.64 250.571 1114.16 214.142C1119.69 205.38 1124.99 201 1130.06 201C1134.21 201 1136.29 203.536 1136.29 208.609C1136.29 212.759 1134.68 217.37 1131.45 222.442C1109.31 259.332 1083.03 295.53 1052.6 331.036C1022.17 366.082 989.669 399.052 955.089 429.947C920.51 460.845 885.702 488.74 850.659 513.641C816.079 538.542 782.883 559.292 751.069 575.892C719.719 592.493 692.056 603.788 668.079 609.785C666.696 608.865 666.005 611.168 666.005 616.702C666.005 624.539 667.618 637.224 670.846 654.744C674.073 671.808 678.914 691.404 685.369 713.537C692.284 735.208 700.583 757.342 710.265 779.939C725.024 814.523 742.542 841.036 762.826 859.483C783.574 878.386 807.323 887.842 834.06 887.842C852.042 887.842 870.487 885.075 889.388 879.542C908.296 874.471 925.586 866.4 941.257 855.333C956.936 844.729 969.156 831.124 977.912 814.523C980.678 808.07 983.908 804.84 987.594 804.84C989.441 804.84 990.36 806.223 990.36 808.99C990.36 812.22 989.212 815.907 986.903 820.057C978.603 837.121 965.927 853.029 948.865 867.783C931.81 882.537 912.674 894.53 891.463 903.75C870.715 912.971 850.43 917.584 830.602 917.584ZM245.516 908.592C214.163 908.592 183.733 904.214 154.226 895.45C125.179 887.15 98.898 874.7 75.3839 858.099C52.3306 841.499 33.8881 821.212 20.0562 797.231C6.68541 773.251 0 746.047 0 715.613C0 707.312 0.691594 698.784 2.07478 690.02C3.45797 680.8 5.30222 671.345 7.60751 661.661C12.2182 645.061 19.5952 630.764 29.7385 618.777C40.343 606.327 51.1779 596.643 62.2434 589.726C73.3091 582.346 81.6082 578.431 87.141 577.968H89.2157C93.8259 577.968 96.1317 579.351 96.1317 582.118C96.1317 584.421 94.9788 586.268 92.6737 587.651C88.5241 589.498 81.3772 594.796 71.2343 603.56C61.5518 611.86 51.8695 623.619 42.1872 638.836C32.5049 653.589 26.2805 671.345 23.5142 692.095C22.131 700.859 21.4394 709.159 21.4394 716.996C21.4394 744.663 27.4332 768.409 39.4208 788.239C51.4085 807.606 67.0845 823.515 86.4494 835.965C105.814 848.416 127.022 857.408 150.076 862.941C173.129 868.938 195.721 871.933 217.852 871.933C226.612 871.933 235.142 871.47 243.441 870.55C251.74 870.086 259.578 868.938 266.955 867.091C316.75 856.024 359.859 838.269 396.283 813.832C433.168 789.394 464.981 761.264 491.723 729.446C518.464 697.629 541.057 664.891 559.499 631.227C578.403 597.563 594.309 565.981 607.219 536.467C609.986 529.55 614.596 518.711 621.051 503.957C627.967 489.204 635.575 472.368 643.874 453.464C652.633 434.561 661.394 415.422 670.154 396.055C679.375 376.688 687.674 358.934 695.05 342.795C702.429 326.656 708.426 314.206 713.032 305.444C682.142 309.133 648.715 312.591 612.752 315.819C577.25 318.586 543.362 324.581 511.088 333.803C475.125 343.948 445.617 358.704 422.564 378.071C399.971 397.438 383.143 418.652 372.077 441.706C361.473 464.76 356.171 486.665 356.171 507.416C356.171 530.013 361.934 548.917 373.461 564.134C384.987 579.351 400.893 586.959 421.181 586.959C431.323 586.959 442.159 584.884 453.685 580.734C467.056 576.121 478.122 568.056 486.882 556.525C495.642 544.538 502.097 531.161 506.247 516.408C510.857 501.191 513.162 486.665 513.162 472.832C513.162 465.451 512.471 458.306 511.088 451.389V450.006C511.088 448.159 512.01 447.239 513.854 447.239C517.542 447.239 520.77 450.006 523.536 455.54C525.841 460.153 527.225 465.223 527.686 470.757C528.608 475.827 529.069 480.904 529.069 485.974C529.069 500.727 525.841 515.488 519.387 530.241C512.931 544.538 504.402 557.445 493.798 568.976C483.193 580.506 471.206 588.806 457.835 593.876C450.458 596.643 443.312 598.718 436.396 600.101C429.48 601.021 422.794 601.485 416.339 601.485C396.513 601.485 378.762 596.415 363.087 586.268C347.872 575.664 335.884 561.831 327.124 544.767C318.825 527.703 314.675 509.263 314.675 489.432C314.675 466.835 320.9 444.009 333.348 420.955C345.797 397.438 365.853 376.226 393.517 357.32C421.181 337.953 457.604 323.198 502.789 313.053C540.595 304.753 579.094 299.449 618.285 297.144C657.474 294.377 692.056 291.611 722.022 288.844C723.869 286.077 727.555 280.774 733.088 272.935C739.084 265.096 745.772 257.257 753.144 249.418C760.987 241.118 768.594 235.815 775.967 233.509C781.043 232.126 785.421 231.434 789.107 231.434C797.406 231.434 803.865 233.739 808.471 238.351C813.548 242.962 816.079 248.496 816.079 254.951C816.079 264.174 809.626 274.088 796.714 284.694C784.266 294.839 763.061 301.524 733.088 304.753C718.336 331.959 704.732 362.162 692.284 395.363C679.836 428.1 667.388 462.456 654.939 498.424C642.951 533.928 629.58 569.667 614.827 605.635C600.534 641.139 584.166 675.495 565.724 708.696C547.281 741.433 525.38 771.411 500.022 798.615C475.125 825.818 445.617 848.644 411.498 867.091C377.84 885.538 338.65 898.217 293.927 905.134C286.089 906.054 278.021 906.745 269.722 907.209C261.422 908.129 253.354 908.592 245.516 908.592ZM746.228 287.46C760.523 285.155 770.669 282.388 776.658 279.16C783.118 275.471 787.724 271.782 790.49 268.093C793.72 264.405 795.331 261.176 795.331 258.41C795.331 253.798 793.028 251.493 788.415 251.493C784.266 251.493 779.196 253.798 773.2 258.41C768.594 261.638 763.753 266.249 758.677 272.243C753.607 278.238 749.458 283.31 746.228 287.46ZM988.555 791.698C983.486 792.161 977.725 791.006 971.266 788.239C964.813 785.473 959.052 780.403 953.976 773.022C949.37 765.642 947.06 755.267 947.06 741.897C947.06 730.83 949.135 717.459 953.284 701.779C947.751 710.543 940.607 721.374 931.845 734.288C923.089 746.738 913.635 757.805 903.489 767.489C894.734 775.789 886.435 781.786 878.592 785.473C870.756 789.159 863.612 791.006 857.153 791.006C845.167 791.006 835.485 785.701 828.106 775.097C820.733 764.03 817.04 749.733 817.04 732.213C817.04 713.766 821.653 692.787 830.872 669.27C840.098 645.753 855.078 621.315 875.826 595.951C889.201 579.814 905.336 566.901 924.237 557.217C943.602 547.07 962.51 542 980.948 542C991.557 542 1001.7 543.847 1011.38 547.533C1021.06 550.764 1029.59 556.297 1036.97 564.134C1040.2 567.364 1041.81 571.051 1041.81 575.201C1041.81 577.968 1040.66 580.271 1038.35 582.118C1036.05 583.964 1033.05 584.421 1029.36 583.501C1024.29 567.364 1013.45 559.292 996.855 559.292C989.019 559.292 980.028 561.831 969.882 566.901C954.211 575.201 937.841 588.806 920.779 607.71C904.181 626.614 889.658 646.216 877.209 666.503C875.369 669.27 872.368 674.575 868.218 682.412C864.532 690.249 860.846 699.012 857.153 708.696C853.466 718.379 850.928 727.835 849.545 737.055C849.089 739.821 848.854 741.897 848.854 743.28C848.854 744.2 848.854 745.818 848.854 748.122C848.854 763.339 854.621 770.947 866.143 770.947C879.975 770.947 895.654 760.8 913.172 740.513C925.164 725.76 935.994 710.307 945.677 694.17C955.359 678.033 965.276 660.741 975.415 642.294C982.331 629.844 988.791 619.469 994.78 611.168C1000.78 602.868 1009.3 598.718 1020.37 598.718C1025.45 598.718 1030.51 599.41 1035.58 600.793C1040.66 602.176 1045.96 602.405 1051.49 601.485C1047.8 605.171 1042.73 612.088 1036.28 622.235C1030.29 632.382 1023.83 643.906 1016.91 656.819C1009.99 669.733 1003.77 682.875 998.238 696.245C992.705 709.616 988.791 721.146 986.481 730.83C986.024 733.596 985.333 737.518 984.406 742.588C983.949 747.658 983.714 751.352 983.714 753.655C983.714 766.569 987.407 773.022 994.78 773.022C1002.16 773.022 1009.99 768.644 1018.29 759.88C1027.06 751.117 1035.58 740.285 1043.88 727.371C1052.18 714.457 1059.79 701.551 1066.71 688.637C1073.62 675.267 1079.15 664.428 1083.3 656.128C1085.15 651.514 1087.92 649.211 1091.6 649.211C1093.91 649.211 1095.06 650.823 1095.06 654.053C1095.06 655.436 1094.37 657.975 1092.99 661.661C1087.45 673.192 1080.77 686.334 1072.93 701.087C1065.09 715.384 1056.57 729.446 1047.34 743.28C1038.12 756.65 1028.44 767.952 1018.29 777.172C1008.61 785.936 998.701 790.778 988.555 791.698ZM1404.71 853.258C1359.53 853.258 1318.04 846.569 1280.23 833.199C1242.88 819.828 1212.69 800.226 1189.63 774.406C1166.58 748.122 1153.9 715.841 1151.59 677.57C1150.67 661.889 1153.21 644.597 1159.2 625.694C1165.2 606.79 1173.49 588.115 1184.1 569.667C1195.16 550.764 1208.07 533.928 1222.83 519.174C1238.04 503.957 1254.18 492.427 1271.24 484.59C1272.62 483.67 1274.7 482.979 1277.46 482.515C1280.69 482.052 1282.99 481.824 1284.38 481.824C1287.14 481.824 1288.53 482.515 1288.53 483.899C1288.53 486.202 1285.07 489.895 1278.15 494.966C1258.79 510.183 1242.88 527.703 1230.43 547.533C1217.53 567.364 1207.85 588.571 1201.39 611.168C1194.93 633.766 1191.7 656.591 1191.7 679.645C1191.7 706.849 1197.47 730.366 1208.99 750.197C1220.99 769.564 1236.89 785.473 1256.71 797.923C1276.54 810.837 1299.14 820.285 1324.49 826.282C1349.85 832.279 1376.36 835.274 1404.02 835.274C1434.92 835.274 1465.35 831.815 1495.31 824.899C1525.74 817.982 1553.41 808.07 1578.3 795.156C1616.58 774.869 1646.77 749.733 1668.9 719.763C1691.5 689.792 1702.79 660.05 1702.79 630.535C1702.79 614.855 1699.33 599.873 1692.42 585.576C1685.96 571.279 1675.36 558.372 1660.6 546.842C1649.54 538.078 1635.94 529.778 1619.8 521.941C1604.13 514.104 1587.3 506.496 1569.31 499.116C1551.8 491.735 1534.51 484.362 1517.44 476.982C1500.39 469.145 1485.4 460.845 1472.49 452.081C1454.05 439.631 1440.45 426.261 1431.69 411.963C1423.39 397.668 1419.24 383.374 1419.24 369.079C1419.24 352.017 1424.08 335.417 1433.76 319.278C1443.91 303.139 1457.51 288.613 1474.57 275.702C1492.09 262.33 1511.68 251.954 1533.35 244.576C1552.26 238.121 1572.77 233.048 1594.9 229.359C1617.5 225.67 1639.63 223.826 1661.3 223.826C1679.28 223.826 1696.34 225.209 1712.47 227.976C1729.07 230.281 1743.6 234.662 1756.04 241.118C1771.72 248.496 1783.71 258.41 1792.01 270.86C1800.31 282.849 1804.46 295.53 1804.46 308.903C1804.46 327.348 1796.16 343.487 1779.56 357.32C1773.57 361.932 1766.88 366.312 1759.5 370.462C1752.13 374.151 1743.37 377.379 1733.22 380.146C1731.38 380.607 1729.31 380.838 1727 380.838C1721.46 380.838 1718.7 379.224 1718.7 375.996C1718.7 374.151 1720.08 372.307 1722.85 370.462C1726.08 368.157 1730.69 366.774 1736.68 366.312C1750.51 364.468 1760.89 359.165 1767.8 350.404C1775.18 341.642 1778.87 331.498 1778.87 319.97C1778.87 307.981 1774.72 296.222 1766.42 284.694C1758.58 272.705 1746.36 262.79 1729.76 254.951C1713.17 246.651 1691.96 242.501 1666.14 242.501C1651.39 242.501 1635.02 244.115 1617.03 247.343C1599.52 250.571 1580.38 255.873 1559.63 263.252C1534.28 272.013 1513.07 284.924 1496.01 301.986C1479.41 319.048 1471.11 337.262 1471.11 356.629C1471.11 368.618 1475.03 380.838 1482.86 393.288C1491.16 405.277 1504.3 416.805 1522.29 427.872C1537.5 437.092 1554.79 446.319 1574.16 455.54C1593.52 464.303 1613.12 473.295 1632.94 482.515C1652.77 491.279 1670.75 500.727 1686.88 510.874C1712.25 526.555 1730.46 543.383 1741.52 561.367C1752.59 579.351 1758.12 597.798 1758.12 616.702C1758.12 638.836 1751.44 661.198 1738.06 683.795C1725.16 705.929 1708.1 726.908 1686.88 746.738C1665.68 766.105 1642.39 783.398 1617.03 798.615C1587.53 816.135 1554.1 829.512 1516.75 838.732C1479.87 848.416 1442.52 853.258 1404.71 853.258ZM1752.76 795.156C1772.12 755.502 1792.18 714.001 1812.93 670.653C1834.14 626.849 1855.81 582.809 1877.94 538.542C1900.07 494.274 1921.97 452.081 1943.64 411.963C1951.48 398.13 1958.63 387.293 1965.08 379.454C1971.99 371.615 1980.98 367.696 1992.05 367.696C1996.2 367.696 2001.04 368.387 2006.57 369.771C2012.11 371.154 2017.41 371.384 2022.48 370.462C2016.49 376.918 2008.19 388.216 1997.58 404.355C1987.44 420.492 1975.92 439.859 1963 462.456C1950.55 485.054 1937.19 509.491 1922.89 535.775C1909.06 561.595 1895.23 587.879 1881.4 614.627C1868.03 640.911 1855.58 665.583 1844.05 688.637C1853.28 676.65 1862.72 665.348 1872.4 654.744C1882.09 644.141 1891.54 634.914 1900.76 627.077C1910.91 617.857 1923.58 608.173 1938.8 598.026C1954.48 587.879 1969.92 579.123 1985.13 571.742C2000.81 564.362 2013.26 560.675 2022.48 560.675C2025.71 560.675 2028.01 560.904 2029.4 561.367C2029.4 561.367 2026.87 565.981 2021.79 575.201C2016.72 584.421 2010.27 596.18 2002.42 610.477C1995.05 624.774 1987.21 640.219 1978.91 656.819C1971.07 673.42 1964.16 689.329 1958.16 704.546C1952.17 719.299 1948.25 731.521 1946.41 741.205C1945.02 748.585 1944.33 754.81 1944.33 759.88C1944.33 767.261 1945.71 772.331 1948.48 775.097C1951.25 777.401 1954.25 778.556 1957.47 778.556C1965.31 778.556 1973.84 773.714 1983.06 764.03C1992.29 754.347 2001.28 742.588 2010.03 728.755C2018.79 714.457 2026.63 700.624 2033.55 687.254C2040.93 673.883 2046.46 663.508 2050.14 656.128C2052.91 651.058 2055.68 648.519 2058.44 648.519C2061.21 648.519 2062.59 650.366 2062.59 654.053C2062.59 655.9 2061.9 658.666 2060.52 662.353C2054.53 674.34 2047.61 687.945 2039.77 703.162C2032.4 717.916 2023.86 732.213 2014.18 746.047C2004.96 759.417 1994.59 770.484 1983.06 779.247C1971.99 788.011 1960.01 792.389 1947.1 792.389C1937.88 792.389 1928.42 789.159 1918.74 782.706C1909.06 776.252 1904.22 764.494 1904.22 747.43C1904.22 742.36 1904.68 737.055 1905.6 731.521C1906.53 725.524 1908.14 718.843 1910.44 711.462C1913.21 702.242 1917.82 692.095 1924.27 681.028C1930.73 669.498 1939.03 655.208 1949.17 638.144C1953.78 630.307 1956.09 624.082 1956.09 619.469C1956.09 613.935 1953.32 611.168 1947.79 611.168C1943.18 611.168 1936.96 613.472 1929.12 618.085C1921.28 622.699 1911.37 630.764 1899.38 642.294C1887.85 653.361 1873.56 669.498 1856.5 690.712C1839.44 711.926 1821.23 741.668 1801.86 779.939C1798.64 785.936 1794.95 789.159 1790.8 789.623C1787.11 789.623 1782.04 789.851 1775.58 790.314C1771.43 790.778 1767.28 791.006 1763.13 791.006C1758.98 791.469 1755.53 792.853 1752.76 795.156ZM2099.24 792.389C2082.18 792.389 2066.74 786.856 2052.9 775.789C2039.54 764.722 2032.85 747.893 2032.85 725.296C2032.85 704.546 2037.92 682.412 2048.06 658.895C2058.21 634.914 2071.11 613.935 2086.79 595.951C2100.16 580.271 2115.15 567.364 2131.75 557.217C2148.34 547.07 2164.02 542 2178.77 542C2188.92 542 2197.67 544.767 2205.05 550.3C2212.89 556.297 2216.81 564.826 2216.81 575.892C2216.81 587.423 2212.43 600.101 2203.67 613.935C2194.91 627.769 2182.46 640.682 2166.32 652.669C2159.41 657.739 2150.65 662.581 2140.04 667.195C2129.44 671.808 2118.83 675.723 2108.23 678.953C2097.63 681.72 2088.87 683.103 2081.95 683.103C2079.65 688.637 2077.34 696.017 2075.03 705.237C2073.19 714.457 2072.27 723.913 2072.27 733.596C2072.27 745.127 2074.57 755.502 2079.18 764.722C2083.8 773.942 2092.32 778.556 2104.77 778.556C2119.99 778.556 2133.82 774.177 2146.27 765.414C2158.72 756.65 2169.78 745.818 2179.47 732.905C2189.15 719.534 2197.22 706.157 2203.67 692.787C2210.59 679.417 2216.12 668.115 2220.27 658.895C2223.04 652.441 2226.72 649.211 2231.33 649.211C2233.64 649.211 2234.79 650.366 2234.79 652.669C2234.79 654.516 2234.1 656.819 2232.72 659.586C2226.27 673.42 2219.35 688.173 2211.97 703.854C2204.59 719.071 2195.84 733.596 2185.69 747.43C2175.54 760.8 2163.33 771.639 2149.04 779.939C2135.2 788.239 2118.6 792.389 2099.24 792.389ZM2086.79 670.653C2093.24 670.653 2104.08 668.35 2119.3 663.736C2134.51 658.666 2148.34 650.823 2160.79 640.219C2172.78 629.616 2182 618.085 2188.46 605.635C2194.91 592.721 2198.14 581.889 2198.14 573.126C2198.14 562.979 2194.45 557.909 2187.07 557.909C2181.54 557.909 2173.93 561.595 2164.25 568.976C2154.57 576.356 2142.58 588.806 2128.29 606.327C2119.52 617.393 2111.23 629.38 2103.39 642.294C2095.55 655.208 2090.02 664.656 2086.79 670.653ZM2371.07 791.698C2365.99 792.161 2360.23 791.006 2353.78 788.239C2347.32 785.473 2341.56 780.403 2336.49 773.022C2331.88 765.642 2329.58 755.267 2329.58 741.897C2329.58 730.83 2331.65 717.459 2335.8 701.779C2330.27 710.543 2323.12 721.374 2314.36 734.288C2305.6 746.738 2296.14 757.805 2286.01 767.489C2277.24 775.789 2268.94 781.786 2261.11 785.473C2253.27 789.159 2246.12 791.006 2239.67 791.006C2227.68 791.006 2217.99 785.701 2210.62 775.097C2203.24 764.03 2199.56 749.733 2199.56 732.213C2199.56 713.766 2204.16 692.787 2213.39 669.27C2222.61 645.753 2237.59 621.315 2258.34 595.951C2271.71 579.814 2287.84 566.901 2306.75 557.217C2326.12 547.07 2345.02 542 2363.46 542C2374.07 542 2384.21 543.847 2393.89 547.533C2403.58 550.764 2412.1 556.297 2419.48 564.134C2422.71 567.364 2424.32 571.051 2424.32 575.201C2424.32 577.968 2423.17 580.271 2420.87 582.118C2418.56 583.964 2415.56 584.421 2411.88 583.501C2406.8 567.364 2395.97 559.292 2379.37 559.292C2371.53 559.292 2362.54 561.831 2352.4 566.901C2336.72 575.201 2320.35 588.806 2303.3 607.71C2286.7 626.614 2272.17 646.216 2259.72 666.503C2257.88 669.27 2254.88 674.575 2250.73 682.412C2247.04 690.249 2243.35 699.012 2239.67 708.696C2235.98 718.379 2233.44 727.835 2232.06 737.055C2231.6 739.821 2231.37 741.897 2231.37 743.28C2231.37 744.2 2231.37 745.818 2231.37 748.122C2231.37 763.339 2237.13 770.947 2248.66 770.947C2262.49 770.947 2278.16 760.8 2295.69 740.513C2307.67 725.76 2318.51 710.307 2328.19 694.17C2337.87 678.033 2347.79 660.741 2357.93 642.294C2364.85 629.844 2371.3 619.469 2377.3 611.168C2383.28 602.868 2391.82 598.718 2402.88 598.718C2407.95 598.718 2413.02 599.41 2418.1 600.793C2423.17 602.176 2428.47 602.405 2434.01 601.485C2430.31 605.171 2425.24 612.088 2418.79 622.235C2412.8 632.382 2406.34 643.906 2399.43 656.819C2392.51 669.733 2386.29 682.875 2380.75 696.245C2375.22 709.616 2371.3 721.146 2369 730.83C2368.53 733.596 2367.84 737.518 2366.92 742.588C2366.46 747.658 2366.23 751.352 2366.23 753.655C2366.23 766.569 2369.92 773.022 2377.3 773.022C2384.67 773.022 2392.51 768.644 2400.81 759.88C2409.57 751.117 2418.1 740.285 2426.4 727.371C2434.7 714.457 2442.31 701.551 2449.22 688.637C2456.14 675.267 2461.67 664.428 2465.82 656.128C2467.66 651.514 2470.43 649.211 2474.12 649.211C2476.42 649.211 2477.58 650.823 2477.58 654.053C2477.58 655.436 2476.89 657.975 2475.5 661.661C2469.97 673.192 2463.28 686.334 2455.45 701.087C2447.6 715.384 2439.08 729.446 2429.86 743.28C2420.63 756.65 2410.95 767.952 2400.81 777.172C2391.13 785.936 2381.21 790.778 2371.07 791.698Z" fill="white"/>
<path d="M1251.46 244.128C1204.62 262.776 1273.53 345.1 1179.86 382.396C1144.72 396.382 1127.96 390.861 1127.96 390.861L1122.9 380.677C1122.9 380.677 1142.19 391.29 1177.33 377.305C1200.75 367.981 1201.41 312.833 1201.41 312.833C1201.41 312.833 1196.25 363.557 1172.2 373.132C1128.33 312.942 1197.31 242.495 1251.46 244.128Z" fill="#FE9E7D"/>
</svg>
